<svg xmlns="http://www.w3.org/2000/svg" width="24" height="24" viewBox="0 0 24 24" fill="none">
    <!-- Background / secondary shape with reduced opacity -->
    <path
            opacity="0.4"
            fill="#1D7BF5"
            d="M7 2h10a2 2 0 0 1 2 2v16a2 2 0 0 1-2 2H7a2 2 0 0 1-2-2V4a2 2 0 0 1 2-2zm0 2v4h10V4z"
    />
    <!-- Main grid/detail shapes full-opacity -->
    <path
            fill="#1D7BF5"
            d="M7 8v2h2v-2zm4 0v2h2v-2zm4 0v2h2v-2zm-8 4v2h2v-2zm4 0v2h2v-2zm4 0v2h2v-2zm-8 4v2h2v-2zm4 0v2h2v-2zm4 0v2h2v-2z"
    />
</svg>
