<svg width="300" height="84" viewBox="0 0 300 84" fill="none" xmlns="http://www.w3.org/2000/svg">
<path d="M9 1C20.0031 28.9341 27.4537 48.2837 32.2988 59.0324C34.0687 63.3299 35.5016 66.718 36.6646 69.3742C39.6802 75.6092 43.6819 80.6791 50.7189 82.7754C60.3954 85.0232 71.5799 84.5444 81 78.2152L55.6625 6.89428L9 1Z" fill="url(#paint0_linear_80526_27)"/>
<path fill-rule="evenodd" clip-rule="evenodd" d="M59.5 84C53.1384 51.3138 32.9308 0 0 0C3.11847 4.10039 6.23687 8.43515 9.35535 13.0042C36.3129 59.2056 53.928 81.9777 59.5 84C65.0728 81.9777 82.687 59.2555 109.645 13.0042C112.763 8.43515 115.881 4.10039 119 0C87.566 0 65.8616 51.3138 59.5 84Z" fill="url(#paint1_linear_80526_27)"/>
<path fill-rule="evenodd" clip-rule="evenodd" d="M103 84C111.836 84 119 76.836 119 68C119 59.164 111.836 52 103 52C94.164 52 87 59.164 87 68C87 76.836 94.164 84 103 84Z" fill="url(#paint2_linear_80526_27)"/>
<path d="M135.125 80.2087V39.3001H146.021V80.2087H135.125ZM135 33.4447V23.0475H146.099V33.4447H135ZM172.127 81C169.313 81 166.609 80.5305 164.014 79.5915C161.429 78.6631 159.23 77.1861 157.417 75.1604C155.604 73.1453 154.462 70.5289 153.993 67.311H163.842C164.207 68.767 164.837 69.9117 165.733 70.7452C166.64 71.5997 167.667 72.2011 168.813 72.5492C169.959 72.908 171.054 73.0873 172.096 73.0873C174.284 73.0873 176.045 72.7392 177.379 72.0428C178.724 71.336 179.396 70.2598 179.396 68.8145C179.396 67.7067 179 66.8257 178.208 66.1716C177.416 65.507 176.108 65.0005 174.284 64.6524L167.171 63.1648C163.597 62.3946 160.721 61.0917 158.542 59.2559C156.375 57.4202 155.275 54.8143 155.244 51.4382C155.223 48.9905 155.854 46.7908 157.135 44.839C158.428 42.8872 160.345 41.3416 162.888 40.2022C165.431 39.0733 168.537 38.5089 172.205 38.5089C177.187 38.5089 181.168 39.6166 184.148 41.8322C187.129 44.0477 188.645 47.1759 188.697 51.2166H179.162C178.88 49.6236 178.104 48.3997 176.832 47.5452C175.571 46.6906 173.977 46.2633 172.049 46.2633C170.1 46.2633 168.485 46.6167 167.203 47.3236C165.931 48.041 165.296 49.1224 165.296 50.5678C165.296 51.6545 165.817 52.509 166.859 53.1315C167.901 53.7434 169.516 54.2762 171.705 54.7299L178.27 56.2333C180.532 56.7924 182.371 57.5521 183.789 58.5121C185.216 59.4722 186.321 60.5167 187.103 61.6456C187.884 62.785 188.421 63.9297 188.713 65.0797C189.015 66.2191 189.166 67.253 189.166 68.1814C189.166 70.9034 188.452 73.2192 187.025 75.1288C185.586 77.0384 183.591 78.4943 181.037 79.4966C178.484 80.4989 175.514 81 172.127 81ZM197.186 80.2087V39.3001H208.081V80.2087H197.186ZM197.061 33.4447V23.0475H208.16V33.4447H197.061ZM235.563 81C231.603 81 228.153 80.1454 225.215 78.4363C222.286 76.7166 220.019 74.2848 218.414 71.1408C216.82 68.0074 216.023 64.2937 216.023 59.9997C216.023 55.6952 216.82 51.9341 218.414 48.7162C220.019 45.4984 222.286 42.9927 225.215 41.1992C228.153 39.4056 231.613 38.5089 235.595 38.5089C239.586 38.5089 243.041 39.3845 245.959 41.1359C248.877 42.8872 251.128 45.3718 252.712 48.5896C254.306 51.8075 255.104 55.6108 255.104 59.9997C255.104 64.1143 254.327 67.7436 252.775 70.8876C251.222 74.0421 248.991 76.5161 246.084 78.3097C243.187 80.1032 239.68 81 235.563 81ZM235.595 72.4226C237.606 72.4226 239.221 71.8266 240.441 70.6344C241.67 69.4527 242.556 67.8913 243.098 65.9501C243.65 64.0088 243.927 61.8935 243.927 59.6041C243.927 57.4307 243.676 55.384 243.176 53.4638C242.686 51.5331 241.827 49.977 240.597 48.7954C239.378 47.6032 237.71 47.0071 235.595 47.0071C233.594 47.0071 231.973 47.5715 230.733 48.7004C229.493 49.8187 228.586 51.3327 228.013 53.2423C227.44 55.1519 227.153 57.2725 227.153 59.6041C227.153 61.7352 227.414 63.782 227.935 65.7443C228.456 67.7172 229.331 69.3209 230.561 70.5553C231.78 71.8002 233.458 72.4226 235.595 72.4226ZM231.296 34.5209L239.346 23H251.117L239.503 34.5209H231.296ZM262.92 80.2087V39.3001H274.128V45.0764C274.754 44.0741 275.567 43.1035 276.567 42.1645C277.578 41.2256 278.849 40.4554 280.381 39.854C281.924 39.2421 283.748 38.9362 285.853 38.9362C288.333 38.9362 290.647 39.4267 292.793 40.4079C294.94 41.3785 296.681 42.9136 298.015 45.0131C299.338 47.1126 300 49.8504 300 53.2265V80.2087H288.588V54.6507C288.588 52.4352 287.937 50.7735 286.634 49.6658C285.332 48.558 283.742 48.0041 281.866 48.0041C280.616 48.0041 279.412 48.2256 278.255 48.6688C277.099 49.1224 276.155 49.7976 275.426 50.6944C274.696 51.5912 274.332 52.699 274.332 54.0177V80.2087H262.92Z" fill="#1C252E"/>
<defs>
<linearGradient id="paint0_linear_80526_27" x1="44.4532" y1="8.84405" x2="15.9891" y2="39.1236" gradientUnits="userSpaceOnUse">
<stop stop-color="#004B50"/>
<stop offset="1" stop-color="#00A76F"/>
</linearGradient>
<linearGradient id="paint1_linear_80526_27" x1="0" y1="0" x2="54.4551" y2="87.1522" gradientUnits="userSpaceOnUse">
<stop stop-color="#5BE49B"/>
<stop offset="1" stop-color="#00A76F"/>
</linearGradient>
<linearGradient id="paint2_linear_80526_27" x1="87" y1="52" x2="87" y2="84" gradientUnits="userSpaceOnUse">
<stop stop-color="#5BE49B"/>
<stop offset="1" stop-color="#00A76F"/>
</linearGradient>
</defs>
</svg>
